<svg xmlns="http://www.w3.org/2000/svg" width="30.097" height="32" viewBox="0 0 30.097 32"><defs><style>.a{fill:#fff;}</style></defs><g transform="translate(-14.15)"><path class="a" d="M40.147,12.168v-1.23a11.239,11.239,0,0,0-2.931-7.711A10.11,10.11,0,0,0,29.713,0H28.7a10.11,10.11,0,0,0-7.5,3.227,11.239,11.239,0,0,0-2.931,7.711v1.23a4.415,4.415,0,0,0-4.114,4.4v1.923a4.41,4.41,0,0,0,4.4,4.4h2.481a.809.809,0,0,0,.807-.807V12.961a.809.809,0,0,0-.807-.807H19.878V10.938c0-5.318,3.792-9.324,8.813-9.324h1.015c5.029,0,8.813,4.007,8.813,9.324v1.217H37.363a.809.809,0,0,0-.807.807v9.116a.809.809,0,0,0,.807.807h1.129c-.329,4.208-3.227,5.183-4.571,5.405a2.837,2.837,0,0,0-2.7-1.956H29.209a2.834,2.834,0,0,0,0,5.667h2.024a2.837,2.837,0,0,0,2.729-2.084,7.631,7.631,0,0,0,2.736-.934,7.121,7.121,0,0,0,3.415-6.1,4.408,4.408,0,0,0,4.134-4.4V16.558A4.392,4.392,0,0,0,40.147,12.168Zm-19.906,9.1H18.567a2.792,2.792,0,0,1-2.79-2.79V16.558a2.792,2.792,0,0,1,2.79-2.79h1.674Zm10.992,9.116H29.209a1.217,1.217,0,1,1,0-2.434h2.024a1.217,1.217,0,1,1,0,2.434ZM42.641,18.481a2.792,2.792,0,0,1-2.79,2.79H38.177v-7.5h1.674a2.792,2.792,0,0,1,2.79,2.79Z" transform="translate(0 0)"/></g></svg>