<svg xmlns="http://www.w3.org/2000/svg" width="27.866" height="31.681" viewBox="0 0 27.866 31.681"><defs><style>.a{fill:#4b45e7;}</style></defs><g transform="translate(0)"><path class="a" d="M17.776.01l2.97,2.223L23.734,9.2h2.4l.943-2.044h-.616A2.038,2.038,0,0,1,24.419,5.12V3.066H23.4V0h3.066V3.066H25.441V5.12a1.015,1.015,0,0,0,1.022,1.012h1.088l1.306-2.826-1.565-.78L32.415.332l1.2,4.215a4.6,4.6,0,1,1,7.151,3.88V9.2h1.238l.08.419a11.5,11.5,0,0,1,.068,3.933l3.486,6.214-3.85.879v6.44h-5.11v4.6H24.419V24.56A13.318,13.318,0,0,1,18.8,13.621V11.757A11.868,11.868,0,0,1,19,9.621l.076-.424h1l-2.3-5.509V.01Zm7.665,2.044V1.032H24.419V2.054ZM27.261,9.2H29.2l.929-2.044H28.2ZM31.752,1.73l-2.031.87.479.235-1.524,3.3h1.917L31.838,3.4l.457.231ZM30.322,9.2h2.272V8.186a1.031,1.031,0,0,0-1.022-1.032h-.321Zm2.007-4.406-.62,1.364a2.04,2.04,0,0,1,1.907,2.03V9.2H35.66v-.77a4.617,4.617,0,0,1-1.95-2.946Zm9.463-.183A3.577,3.577,0,1,0,36.427,7.7l.255.147V9.2H37.7V6.047a1.533,1.533,0,1,1,1.022,0V9.2h1.022V7.85L40,7.7A3.59,3.59,0,0,0,41.792,4.609Zm-3.577.511a.511.511,0,1,0-.511-.511A.512.512,0,0,0,38.215,5.12Zm-18.283,5.1a10.735,10.735,0,0,0-.111,1.533V13.62a12.442,12.442,0,0,0,5.4,10.253l.225.153v6.632H35.66v-4.6h5.11V19.827l3.312-.756-2.991-5.333.029-.182a10.542,10.542,0,0,0,.036-3.336H19.932ZM21.183,9.2h1.439L20.075,3.259l-1.133.564ZM18.8,2.759l.565-.283L18.8,2.054Z" transform="translate(-17.776)"/><path class="a" d="M75.255,111.057a1.433,1.433,0,0,0,1.533-1.533H77.81a2.555,2.555,0,1,1-5.11,0h1.022A1.433,1.433,0,0,0,75.255,111.057Z" transform="translate(-55.838 -97.771)"/></g></svg>