<svg xmlns="http://www.w3.org/2000/svg" width="11.892" height="17.487" viewBox="0 0 11.892 17.487"><defs><style>.a{fill:#fff;}</style></defs><path class="a" d="M208.092,79.548c-.378-.514-.747-1.015-1.1-1.523a37.4,37.4,0,0,1-3.267-5.457,12.473,12.473,0,0,1-1.059-2.938,5.95,5.95,0,0,1,6.147-7.136,5.947,5.947,0,0,1,5.489,4.7,6.153,6.153,0,0,1-.18,3.149,23.708,23.708,0,0,1-2.864,5.749c-.841,1.287-1.757,2.526-2.64,3.785-.022.03-.044.058-.074.092S208.3,79.827,208.092,79.548Zm3.293-11.027a2.908,2.908,0,1,0-3.091,2.82A2.919,2.919,0,0,0,211.385,68.521Z" transform="translate(-202.533 -62.488)"/></svg>