<svg xmlns="http://www.w3.org/2000/svg" width="34.524" height="20.769" viewBox="0 0 34.524 20.769"><defs><style>.a{fill:#fff;}</style></defs><path class="a" d="M34.221,7.537,17.47.047a.509.509,0,0,0-.417,0L10.262,3.083a.511.511,0,0,0,.417.932l6.583-2.943,6.026,2.695V7.529a20.941,20.941,0,0,0-6.012-1.262h-.028A21.1,21.1,0,0,0,10.532,7.8,17.408,17.408,0,0,0,6.743,9.908a.511.511,0,0,0-.178.243L1.762,8,8.5,4.992a.511.511,0,0,0-.417-.932L.3,7.537a.511.511,0,0,0,0,.932l6.235,2.788V13.7a.511.511,0,0,0,1.021,0V10.937h0v-.358a16.523,16.523,0,0,1,3.36-1.832,20.539,20.539,0,0,1,6.344-1.458A20.433,20.433,0,0,1,23.288,8.62v5.075a1.8,1.8,0,0,0-.178,3.4l-.357.94a19.084,19.084,0,0,0-5.492,1.645c-3.03-1.592-8.1-2.042-9.7-2.147V16.1a.511.511,0,1,0-1.021,0v1.915a.511.511,0,0,0,.488.51c.067,0,6.7.313,9.984,2.181a.51.51,0,0,0,.506,0,16.363,16.363,0,0,1,4.815-1.556l-.3.795a.511.511,0,0,0,.477.692h2.588a.511.511,0,0,0,.478-.692l-.462-1.215c1.39-.159,2.378-.2,2.39-.2a.511.511,0,0,0,.489-.51V16.1a.511.511,0,1,0-1.021,0v1.433c-.477.032-1.269.1-2.231.212l-.247-.65a1.8,1.8,0,0,0-.178-3.4V9.053a16.179,16.179,0,0,1,2.656,1.526v.358h0V13.7a.511.511,0,1,0,1.021,0V11.257l6.235-2.788a.511.511,0,0,0,0-.932ZM23.245,19.613l.553-1.456.553,1.456Zm1.336-4.188a.783.783,0,1,1-.783-.783A.784.784,0,0,1,24.582,15.425Zm3.376-5.274a.511.511,0,0,0-.178-.243,17.254,17.254,0,0,0-3.47-1.972V4.223L32.762,8Zm0,0" transform="translate(0 -0.002)"/></svg>