<svg xmlns="http://www.w3.org/2000/svg" width="22.569" height="32" viewBox="0 0 22.569 32"><defs><style>.a{fill:#fff;}</style></defs><g transform="translate(-75.447 0)"><g transform="translate(79.282 17.875)"><g transform="translate(0)"><path class="a" d="M137.423,286a.625.625,0,1,0,.625.625A.625.625,0,0,0,137.423,286Z" transform="translate(-136.798 -286)"/></g></g><g transform="translate(79.282 20.375)"><g transform="translate(0)"><path class="a" d="M137.423,326a.625.625,0,0,0-.625.625V334.5a.625.625,0,1,0,1.25,0v-7.875A.625.625,0,0,0,137.423,326Z" transform="translate(-136.798 -326)"/></g></g><g transform="translate(75.447 0)"><g transform="translate(0 0)"><path class="a" d="M97.244.47A.625.625,0,0,0,96.269.12c-.625.457-3.766,2.809-4.278,4.214a3.118,3.118,0,0,0,.173,2.524,29.845,29.845,0,0,0-2.258,4.1V.625A.625.625,0,0,0,89.282,0h-5a.625.625,0,0,0-.625.625v12.25h-.112L82.477,8.722l0-.006L81.5,5.094h0a.63.63,0,0,0-.02-.061l-.008-.018c-.006-.014-.012-.028-.019-.042l-.011-.019c-.007-.013-.015-.025-.023-.038L81.412,4.9l-.027-.036-.007-.01L77.669.481a.625.625,0,0,0-1.09.283L75.459,6.428s0,.008,0,.013-.005.033-.007.049,0,.014,0,.021,0,.031,0,.047,0,.014,0,.022,0,.032,0,.048,0,.013,0,.019a.63.63,0,0,0,.014.065l.969,3.618.65,2.573a1.875,1.875,0,0,0-.306,3.615V28.875A3.129,3.129,0,0,0,79.907,32h12.5a3.129,3.129,0,0,0,3.125-3.125V16.518a1.875,1.875,0,0,0-.272-3.61,30.83,30.83,0,0,0,.8-4.594,3.107,3.107,0,0,0,1.8-1.842C98.378,5.064,97.438,1.225,97.244.47ZM93,7.859a3.13,3.13,0,0,0,1.789.666,31.157,31.157,0,0,1-.807,4.349H90.407A36.213,36.213,0,0,1,93,7.859Zm-8.09-6.61h3.75V2.687h-1.25a.625.625,0,1,0,0,1.25h1.25v1.25h-1.25a.625.625,0,1,0,0,1.25h1.25v1.25h-1.25a.625.625,0,1,0,0,1.25h1.25v1.25h-1.25a.625.625,0,1,0,0,1.25h1.25v1.437h-3.75ZM77.554,2.277,80.118,5.3a2.913,2.913,0,0,1-3.34.9ZM76.99,7.562a4.107,4.107,0,0,0,.842.088,4.185,4.185,0,0,0,1.083-.143,4.141,4.141,0,0,0,1.7-.915l.655,2.445.987,3.839H78.37l-.722-2.856,0-.009ZM94.282,28.875a1.877,1.877,0,0,1-1.875,1.875h-12.5a1.877,1.877,0,0,1-1.875-1.875V16.625h16.25Zm1.25-14.125a.626.626,0,0,1-.625.625h-17.5a.625.625,0,0,1,0-1.25h17.5A.626.626,0,0,1,95.532,14.75Zm1.159-8.706a1.875,1.875,0,0,1-3.271.472h0a1.873,1.873,0,0,1-.253-1.754A12.637,12.637,0,0,1,96.252,1.7C96.617,3.362,96.924,5.4,96.691,6.044Z" transform="translate(-75.447 0)"/></g></g></g></svg>