<svg xmlns="http://www.w3.org/2000/svg" width="11.884" height="14.886" viewBox="0 0 11.884 14.886"><defs><style>.a{fill:#fff;}</style></defs><g transform="translate(-0.5)"><path class="a" d="M8.949.1A.315.315,0,0,0,8.724,0H2.071A1.575,1.575,0,0,0,.5,1.567V13.319a1.575,1.575,0,0,0,1.571,1.567h8.742a1.575,1.575,0,0,0,1.571-1.567V3.757a.318.318,0,0,0-.092-.219Zm.089.991L11.324,3.44H9.35a.309.309,0,0,1-.312-.306Zm1.775,13.173H2.071a.949.949,0,0,1-.945-.942V1.567A.949.949,0,0,1,2.071.625H8.412V3.132a.935.935,0,0,0,.936.934h2.41v9.253a.949.949,0,0,1-.945.942Zm0,0"/><path class="a" d="M69.833,382h-7.2a.313.313,0,0,0,0,.625h7.2a.313.313,0,0,0,0-.625Zm0,0" transform="translate(-59.888 -370.053)"/><path class="a" d="M62.633,328.625h4.31a.313.313,0,1,0,0-.625h-4.31a.313.313,0,1,0,0,.625Zm0,0" transform="translate(-59.887 -317.742)"/><path class="a" d="M69.812,194.877h4.332a.331.331,0,0,0,.328-.318v-.4A2.171,2.171,0,0,0,72.294,192h-.631a2.158,2.158,0,0,0-2.163,2.153v.406a.317.317,0,0,0,.312.318Zm.313-.714a1.539,1.539,0,0,1,1.537-1.538h.631a1.553,1.553,0,0,1,1.553,1.538v.088H70.125Zm0,0" transform="translate(-66.842 -185.995)"/><path class="a" d="M100.632,91.3a1.558,1.558,0,1,0-1.558-1.558A1.558,1.558,0,0,0,100.632,91.3Zm0-2.49a.932.932,0,1,1-.932.932A.932.932,0,0,1,100.632,88.805Zm0,0" transform="translate(-95.492 -85.422)"/></g></svg>