<svg xmlns="http://www.w3.org/2000/svg" width="32" height="32" viewBox="0 0 32 32"><defs><style>.a{fill:#fff;}</style></defs><g transform="translate(-0.001 0)"><g transform="translate(15.725 15.026)"><path class="a" d="M252.654,240.6a.625.625,0,1,0,0,.884A.625.625,0,0,0,252.654,240.6Z" transform="translate(-251.587 -240.418)"/></g><g transform="translate(19.414 6.338)"><path class="a" d="M315.936,102.331a3.125,3.125,0,1,0,0,4.419A3.124,3.124,0,0,0,315.936,102.331Zm-.884,3.536a1.875,1.875,0,1,1,0-2.652A1.878,1.878,0,0,1,315.052,105.867Z" transform="translate(-310.603 -101.415)"/></g><g transform="translate(6.002 0)"><g transform="translate(0 0)"><path class="a" d="M121.834.183A.623.623,0,0,0,121.369,0a27.765,27.765,0,0,0-7.506,1.554,20.925,20.925,0,0,0-7.94,4.816c-.462.462-.912.953-1.343,1.462a4.581,4.581,0,0,0-4.709-.271c-2.38,1.274-3.853,4.732-3.853,7.206a.625.625,0,0,0,1.067.442,3.979,3.979,0,0,1,3.309-1.11l.219.219a21.983,21.983,0,0,0-1.032,3.036,1.769,1.769,0,0,0,.076,1.086,5.918,5.918,0,0,0-1.688,1.19c-1.609,1.609-1.936,5.53-1.949,5.7a.625.625,0,0,0,.623.674l.049,0c.166-.013,4.087-.34,5.7-1.949a5.919,5.919,0,0,0,1.19-1.687,1.765,1.765,0,0,0,1.086.075A21.986,21.986,0,0,0,107.7,21.4l.219.219a3.979,3.979,0,0,1-1.11,3.309A.625.625,0,0,0,107.25,26c2.474,0,5.932-1.473,7.206-3.853a4.581,4.581,0,0,0-.271-4.709c.509-.43,1-.88,1.462-1.343a20.927,20.927,0,0,0,4.815-7.94A27.765,27.765,0,0,0,122.016.647.625.625,0,0,0,121.834.183ZM97.415,13.422a7.222,7.222,0,0,1,3.046-4.76,3.33,3.33,0,0,1,3.328.157,25.27,25.27,0,0,0-2.626,4.28.659.659,0,0,0-.331-.194A5.342,5.342,0,0,0,97.415,13.422Zm4.089,9.742c-.859.859-2.875,1.313-4.149,1.5.185-1.274.638-3.29,1.5-4.149a4.5,4.5,0,0,1,1.6-1.052l2.1,2.1A4.5,4.5,0,0,1,101.5,23.164Zm2.849-1.939a.586.586,0,0,1-.546-.177l-1.224-1.224-1.614-1.614a.587.587,0,0,1-.178-.546,20.293,20.293,0,0,1,.78-2.387l5.168,5.168A20.281,20.281,0,0,1,104.354,21.225Zm9,.33a7.221,7.221,0,0,1-4.759,3.046,5.319,5.319,0,0,0,.512-3.433.653.653,0,0,0-.19-.316,25.28,25.28,0,0,0,4.28-2.626A3.33,3.33,0,0,1,113.354,21.556Zm1.409-6.346a22.681,22.681,0,0,1-1.8,1.617,24.012,24.012,0,0,1-4.982,3.089L102.1,14.039a24.009,24.009,0,0,1,3.088-4.982,22.682,22.682,0,0,1,1.617-1.8,19.489,19.489,0,0,1,7.1-4.386L119.149,8.1A19.487,19.487,0,0,1,114.763,15.209ZM119.6,6.787,115.23,2.418A28.1,28.1,0,0,1,120.714,1.3,28.1,28.1,0,0,1,119.6,6.787Z" transform="translate(-96.018 0)"/></g></g><g transform="translate(12.19 25.632)"><path class="a" d="M197.855,410.3a.625.625,0,0,0-.884,0l-1.768,1.768a.625.625,0,0,0,.884.884l1.768-1.768A.625.625,0,0,0,197.855,410.3Z" transform="translate(-195.021 -410.121)"/></g><g transform="translate(3.351 16.794)"><path class="a" d="M56.427,268.884a.625.625,0,0,0-.884,0l-1.768,1.767a.625.625,0,1,0,.884.884l1.768-1.768A.625.625,0,0,0,56.427,268.884Z" transform="translate(-53.592 -268.701)"/></g><g transform="translate(5.304 26.517)"><path class="a" d="M90.152,424.454a.625.625,0,0,0-.884,0l-4.234,4.233a.625.625,0,0,0,.884.884l4.234-4.233A.625.625,0,0,0,90.152,424.454Z" transform="translate(-84.851 -424.271)"/></g><g transform="translate(0.304 26.517)"><path class="a" d="M10.152,424.454a.625.625,0,0,0-.884,0l-4.234,4.233a.625.625,0,1,0,.884.884l4.234-4.233A.625.625,0,0,0,10.152,424.454Z" transform="translate(-4.851 -424.271)"/></g><g transform="translate(0.001 21.213)"><g transform="translate(0)"><path class="a" d="M5.3,339.593a.625.625,0,0,0-.884,0L.184,343.827a.625.625,0,0,0,.884.884L5.3,340.477A.625.625,0,0,0,5.3,339.593Z" transform="translate(-0.001 -339.41)"/></g></g><g transform="translate(17.493 12.374)"><path class="a" d="M281.822,198.173a.625.625,0,0,0-.884,0l-.884.884a.625.625,0,0,0,.884.884l.884-.884A.625.625,0,0,0,281.822,198.173Z" transform="translate(-279.871 -197.99)"/></g></g></svg>