<svg xmlns="http://www.w3.org/2000/svg" width="23.039" height="20.735" viewBox="0 0 23.039 20.735"><defs><style>.a{fill:#fff;}</style></defs><path class="a" d="M21.887,3.456H16.895V1.92A1.922,1.922,0,0,0,14.975,0H8.063a1.922,1.922,0,0,0-1.92,1.92V3.456H1.152A1.152,1.152,0,0,0,0,4.608v8.547a1.157,1.157,0,0,0,.768,1.084v5.344A1.152,1.152,0,0,0,1.92,20.735h19.2a1.152,1.152,0,0,0,1.152-1.152V14.239a1.157,1.157,0,0,0,.768-1.084V4.608a1.152,1.152,0,0,0-1.152-1.152ZM6.912,1.92A1.152,1.152,0,0,1,8.063.768h6.912A1.152,1.152,0,0,1,16.127,1.92V3.456h-.768V1.92a.384.384,0,0,0-.384-.384H8.063a.384.384,0,0,0-.384.384V3.456H6.912Zm7.68,1.536H8.447V2.3h6.144ZM21.5,19.583a.384.384,0,0,1-.384.384H1.92a.384.384,0,0,1-.384-.384V14.371l8.447,1.165v.975a1.152,1.152,0,0,0,1.152,1.152H11.9a1.152,1.152,0,0,0,1.152-1.152v-.975L21.5,14.371Zm-9.215-3.072a.384.384,0,0,1-.384.384h-.768a.384.384,0,0,1-.384-.384v-2.3a.384.384,0,0,1,.384-.384H11.9a.384.384,0,0,1,.384.384Zm9.983-3.356a.384.384,0,0,1-.33.381l-.106.015-8.779,1.211v-.554A1.152,1.152,0,0,0,11.9,13.055h-.768a1.152,1.152,0,0,0-1.152,1.152v.554L1.1,13.536a.384.384,0,0,1-.331-.381V4.608a.384.384,0,0,1,.384-.384H21.887a.384.384,0,0,1,.384.384Zm0,0"/></svg>