<svg xmlns="http://www.w3.org/2000/svg" width="10.599" height="15.147" viewBox="0 0 10.599 15.147"><defs><style>.a{fill:#fff;}</style></defs><path class="a" d="M158.241,15.139a3.419,3.419,0,0,1-1.889-.941,15.273,15.273,0,0,1-3.189-4.285,23.88,23.88,0,0,1-2.457-5.651,5.067,5.067,0,0,1-.124-2.575A1.521,1.521,0,0,1,151.857.438c.676-.118,1.341-.286,2.014-.421a.678.678,0,0,1,.865.461q.648,1.582,1.273,3.172a.691.691,0,0,1-.293.943c-.33.227-.687.423-1,.67a.539.539,0,0,0-.2.427,9.018,9.018,0,0,0,1.945,3.72.368.368,0,0,0,.506.1c.347-.171.711-.311,1.073-.453a.7.7,0,0,1,.976.282q.939,1.385,1.863,2.78a.734.734,0,0,1-.136,1.1A11.843,11.843,0,0,1,158.241,15.139Z" transform="translate(-150.465 0.008)"/></svg>