<svg xmlns="http://www.w3.org/2000/svg" width="12.969" height="8.889" viewBox="0 0 12.969 8.889"><defs><style>.a{fill:#fff;}</style></defs><path class="a" d="M12.938,160.107v.3q0,1.961,0,3.92a1.959,1.959,0,0,1-1.995,2.04q-4.472.019-8.946,0a1.962,1.962,0,0,1-2.022-2.045q0-1.959,0-3.916v-.324c.58.249,1.118.477,1.653.712,1.337.584,2.666,1.187,4.012,1.748a2.13,2.13,0,0,0,1.691-.027c1.224-.525,2.443-1.061,3.665-1.593q.838-.366,1.676-.73c.075-.032.154-.053.266-.092Zm-6.489-2.613c1.791,0,3.583,0,5.374,0a1.018,1.018,0,0,1,1.12,1.115.3.3,0,0,1-.223.322q-2.328,1.006-4.654,2.02c-.346.152-.7.293-1.039.455a1.372,1.372,0,0,1-1.188-.017q-2.832-1.231-5.658-2.476a.4.4,0,0,1-.2-.29,1,1,0,0,1,1.092-1.13c1.791-.005,3.582,0,5.373,0Z" transform="translate(0.025 -157.492)"/></svg>