<svg xmlns="http://www.w3.org/2000/svg" width="36.27" height="32" viewBox="0 0 36.27 32"><defs><style>.a{fill:#fff;}</style></defs><path class="a" d="M119.473,188.786a.6.6,0,0,1-.388-.143l-3.875-3.3a.6.6,0,0,1,0-.912l3.875-3.3a.6.6,0,1,1,.776.912l-3.339,2.844,3.339,2.844a.6.6,0,0,1-.389,1.055Zm0,0" transform="translate(-105.163 -165.507)"/><path class="a" d="M250.307,188.786a.6.6,0,0,1-.389-1.055l3.339-2.844-3.339-2.844a.6.6,0,0,1,.776-.912l3.875,3.3a.6.6,0,0,1,0,.912l-3.875,3.3a.6.6,0,0,1-.388.143Zm0,0" transform="translate(-228.347 -165.507)"/><path class="a" d="M189.554,165.688a.608.608,0,0,1-.124-.013.6.6,0,0,1-.462-.709l2.415-11.466a.6.6,0,1,1,1.172.247l-2.415,11.466A.6.6,0,0,1,189.554,165.688Zm0,0" transform="translate(-172.79 -139.935)"/><path class="a" d="M32.249,32H4.02A4.025,4.025,0,0,1,0,27.98V4.02A4.025,4.025,0,0,1,4.02,0H32.249a4.025,4.025,0,0,1,4.02,4.02V27.98A4.025,4.025,0,0,1,32.249,32ZM4.02,1.2A2.826,2.826,0,0,0,1.2,4.02V27.98A2.826,2.826,0,0,0,4.02,30.8H32.249a2.826,2.826,0,0,0,2.823-2.823V4.02A2.826,2.826,0,0,0,32.249,1.2Zm0,0"/><path class="a" d="M35.671,99.288H.6a.6.6,0,0,1,0-1.2H35.671a.6.6,0,0,1,0,1.2Zm0,0" transform="translate(0 -89.699)"/><path class="a" d="M99.345,38.079a1.895,1.895,0,1,1,1.895-1.895A1.9,1.9,0,0,1,99.345,38.079Zm0-2.592a.7.7,0,1,0,.7.7A.7.7,0,0,0,99.345,35.487Zm0,0" transform="translate(-89.114 -31.356)"/><path class="a" d="M31.282,37.864a1.895,1.895,0,1,1,1.895-1.895A1.9,1.9,0,0,1,31.282,37.864Zm0-2.592a.7.7,0,1,0,.7.7A.7.7,0,0,0,31.282,35.272Zm0,0" transform="translate(-26.873 -31.16)"/><path class="a" d="M167.41,38.294a1.895,1.895,0,1,1,1.895-1.895A1.9,1.9,0,0,1,167.41,38.294Zm0-2.592a.7.7,0,1,0,.7.7A.7.7,0,0,0,167.41,35.7Zm0,0" transform="translate(-151.357 -31.552)"/></svg>